<?xml version="1.0" encoding="UTF-8" standalone="no"?>
<!-- Uploaded to: SVG Repo, www.svgrepo.com, Generator: SVG Repo Mixer Tools -->

<svg
   width="800px"
   height="800px"
   viewBox="0 0 128 128"
   aria-hidden="true"
   role="img"
   class="iconify iconify--noto"
   preserveAspectRatio="xMidYMid meet"
   version="1.1"
   id="svg113"
   sodipodi:docname="package-xeus-r.svg"
   inkscape:version="1.4.2 (ebf0e940d0, 2025-05-08)"
   xml:space="preserve"
   xmlns:inkscape="http://www.inkscape.org/namespaces/inkscape"
   xmlns:sodipodi="http://sodipodi.sourceforge.net/DTD/sodipodi-0.dtd"
   xmlns:xlink="http://www.w3.org/1999/xlink"
   xmlns="http://www.w3.org/2000/svg"
   xmlns:svg="http://www.w3.org/2000/svg"><defs
     id="defs113"><linearGradient
       id="linearGradient7"><stop
         style="stop-color:#50463f;stop-opacity:1;"
         offset="0"
         id="stop5" /><stop
         style="stop-color:#50463f;stop-opacity:0.29803923;"
         offset="1"
         id="stop7" /></linearGradient><inkscape:path-effect
       effect="envelope"
       id="path-effect2"
       is_visible="true"
       lpeversion="1"
       yy="true"
       xx="true"
       bendpath1="M -2.8446485,70.40505 140.6,0"
       bendpath2="M 140.6,0 V 76.119621"
       bendpath3="M -1.0057351,148.53255 140.6,76.119621"
       bendpath4="m -2.4890674,69.338307 0.355581,84.297983"
       bendpath3-nodetypes="cc"
       bendpath1-nodetypes="cc"
       bendpath4-nodetypes="cc" /><linearGradient
       id="linearGradient123"
       x1="0.74144253"
       x2="590.86259"
       y1="3.6658269"
       y2="593.78698"
       gradientUnits="userSpaceOnUse"
       spreadMethod="pad"
       gradientTransform="scale(1.2219423,0.81836924)"><stop
         offset="0"
         stop-color="#cbced0"
         stop-opacity="1"
         id="stop122"
         style="stop-color:#e7e9ec;stop-opacity:1;" /><stop
         offset="1"
         stop-color="#84838b"
         stop-opacity="1"
         id="stop123"
         style="stop-color:#6f6f75;stop-opacity:0.53718585;" /></linearGradient><inkscape:path-effect
       effect="envelope"
       id="path-effect121"
       is_visible="true"
       lpeversion="1"
       yy="true"
       xx="true"
       bendpath1="M 0.906,3 725.69029,335.12625"
       bendpath2="m 699.85825,338.81655 3.69029,563.44258"
       bendpath3="M 0.906,559.062 696.16795,920.71059"
       bendpath4="M 0.906,3 V 559.062"
       bendpath1-nodetypes="cc"
       bendpath3-nodetypes="cc"
       bendpath2-nodetypes="cc" /><linearGradient
       id="linearGradient119"
       x1="0.74144253"
       x2="590.86259"
       y1="3.6658269"
       y2="593.78698"
       gradientUnits="userSpaceOnUse"
       spreadMethod="pad"
       gradientTransform="scale(1.2219423,0.81836924)"><stop
         offset="0"
         stop-color="#cbced0"
         stop-opacity="1"
         id="stop118" /><stop
         offset="1"
         stop-color="#84838b"
         stop-opacity="1"
         id="stop119"
         style="stop-color:#84838b;stop-opacity:0.72245622;" /></linearGradient><inkscape:path-effect
       effect="envelope"
       id="path-effect117"
       is_visible="true"
       lpeversion="1"
       yy="true"
       xx="true"
       bendpath1="M 6.9887288,305.4816 722,3"
       bendpath2="M 722,3 V 559.062"
       bendpath3="M 12.390186,915.55817 722,559.062"
       bendpath4="m 28.594557,310.88305 3.600971,592.07172"
       bendpath3-nodetypes="cc"
       bendpath1-nodetypes="cc"
       bendpath4-nodetypes="cc" /><inkscape:path-effect
       effect="envelope"
       id="path-effect116"
       is_visible="true"
       lpeversion="1"
       yy="true"
       xx="true"
       bendpath1="M 298.00005,152.938 H 696.00001"
       bendpath2="M 696.00001,152.938 V 559.062"
       bendpath3="M 298.00005,559.062 H 696.00001"
       bendpath4="M 298.00005,152.938 V 559.062" /><inkscape:path-effect
       effect="perspective-envelope"
       up_left_point="298.00005,152.938"
       up_right_point="696.00001,152.938"
       down_left_point="298.00005,559.062"
       down_right_point="696.00001,559.062"
       id="path-effect115"
       is_visible="true"
       lpeversion="1"
       deform_type="perspective"
       horizontal_mirror="false"
       vertical_mirror="false"
       overflow_perspective="false" /><inkscape:path-effect
       effect="perspective-envelope"
       up_left_point="2.11,3"
       up_right_point="722,3"
       down_left_point="0.906,559.062"
       down_right_point="722,559.062"
       id="path-effect114"
       is_visible="true"
       lpeversion="1"
       deform_type="perspective"
       horizontal_mirror="false"
       vertical_mirror="false"
       overflow_perspective="false" /><linearGradient
       id="g"
       x1="0.74144253"
       x2="590.86259"
       y1="3.6658269"
       y2="593.78698"
       gradientUnits="userSpaceOnUse"
       spreadMethod="pad"
       gradientTransform="scale(1.2219423,0.81836924)"><stop
         offset="0"
         stop-color="#cbced0"
         stop-opacity="1"
         id="stop1" /><stop
         offset="1"
         stop-color="#84838b"
         stop-opacity="1"
         id="stop2" /></linearGradient><linearGradient
       id="b"
       x1="0"
       x2="1"
       y1="0"
       y2="1"
       gradientUnits="objectBoundingBox"
       spreadMethod="pad"><stop
         offset="0"
         stop-color="#276dc3"
         stop-opacity="1"
         id="stop3" /><stop
         offset="1"
         stop-color="#165caa"
         stop-opacity="1"
         id="stop4" /></linearGradient><inkscape:path-effect
       effect="perspective-envelope"
       up_left_point="2.11,3"
       up_right_point="722,3"
       down_left_point="0.906,559.062"
       down_right_point="722,559.062"
       id="path-effect114-9"
       is_visible="true"
       lpeversion="1"
       deform_type="perspective"
       horizontal_mirror="false"
       vertical_mirror="false"
       overflow_perspective="false" /><inkscape:path-effect
       effect="envelope"
       id="path-effect117-3"
       is_visible="true"
       lpeversion="1"
       yy="true"
       xx="true"
       bendpath1="M 6.9887288,305.4816 722,3"
       bendpath2="M 722,3 V 559.062"
       bendpath3="M 12.390186,915.55817 722,559.062"
       bendpath4="m 28.594557,310.88305 3.600971,592.07172"
       bendpath3-nodetypes="cc"
       bendpath1-nodetypes="cc"
       bendpath4-nodetypes="cc" /><inkscape:path-effect
       effect="perspective-envelope"
       up_left_point="2.11,3"
       up_right_point="722,3"
       down_left_point="0.906,559.062"
       down_right_point="722,559.062"
       id="path-effect114-96"
       is_visible="true"
       lpeversion="1"
       deform_type="perspective"
       horizontal_mirror="false"
       vertical_mirror="false"
       overflow_perspective="false" /><inkscape:path-effect
       effect="envelope"
       id="path-effect117-38"
       is_visible="true"
       lpeversion="1"
       yy="true"
       xx="true"
       bendpath1="M 6.9887288,305.4816 722,3"
       bendpath2="M 722,3 V 559.062"
       bendpath3="M 12.390186,915.55817 722,559.062"
       bendpath4="m 28.594557,310.88305 3.600971,592.07172"
       bendpath3-nodetypes="cc"
       bendpath1-nodetypes="cc"
       bendpath4-nodetypes="cc" /><inkscape:path-effect
       effect="perspective-envelope"
       up_left_point="2.11,3"
       up_right_point="722,3"
       down_left_point="0.906,559.062"
       down_right_point="722,559.062"
       id="path-effect114-9-4"
       is_visible="true"
       lpeversion="1"
       deform_type="perspective"
       horizontal_mirror="false"
       vertical_mirror="false"
       overflow_perspective="false" /><inkscape:path-effect
       effect="envelope"
       id="path-effect117-3-8"
       is_visible="true"
       lpeversion="1"
       yy="true"
       xx="true"
       bendpath1="M 6.9887288,305.4816 722,3"
       bendpath2="M 722,3 V 559.062"
       bendpath3="M 12.390186,915.55817 722,559.062"
       bendpath4="m 28.594557,310.88305 3.600971,592.07172"
       bendpath3-nodetypes="cc"
       bendpath1-nodetypes="cc"
       bendpath4-nodetypes="cc" /><inkscape:path-effect
       effect="envelope"
       id="path-effect121-3"
       is_visible="true"
       lpeversion="1"
       yy="true"
       xx="true"
       bendpath1="M 0.906,3 725.69029,335.12625"
       bendpath2="m 699.85825,338.81655 3.69029,563.44258"
       bendpath3="M 0.906,559.062 696.16795,920.71059"
       bendpath4="M 0.906,3 V 559.062"
       bendpath1-nodetypes="cc"
       bendpath3-nodetypes="cc"
       bendpath2-nodetypes="cc" /><linearGradient
       id="linearGradient1"><stop
         style="stop-color:#666666;stop-opacity:1;"
         offset="0"
         id="stop1-3" /><stop
         style="stop-color:#666666;stop-opacity:1;"
         offset="0.45420957"
         id="stop3-6" /><stop
         style="stop-color:#666666;stop-opacity:0.29714531;"
         offset="1"
         id="stop2-7" /></linearGradient><linearGradient
       xlink:href="#linearGradient7"
       id="linearGradient2"
       x1="104.7841"
       y1="41.50909"
       x2="133.45174"
       y2="73.347725"
       gradientUnits="userSpaceOnUse" /><linearGradient
       xlink:href="#linearGradient1"
       id="linearGradient2-5"
       x1="112.49832"
       y1="37.055305"
       x2="125.73756"
       y2="77.801506"
       gradientUnits="userSpaceOnUse" /></defs><sodipodi:namedview
     id="namedview113"
     pagecolor="#505050"
     bordercolor="#eeeeee"
     borderopacity="1"
     inkscape:showpageshadow="0"
     inkscape:pageopacity="0"
     inkscape:pagecheckerboard="0"
     inkscape:deskcolor="#505050"
     inkscape:zoom="0.14921875"
     inkscape:cx="335.07853"
     inkscape:cy="596.43979"
     inkscape:window-width="2027"
     inkscape:window-height="1412"
     inkscape:window-x="0"
     inkscape:window-y="0"
     inkscape:window-maximized="0"
     inkscape:current-layer="g1" /><linearGradient
     id="IconifyId17ecdb2904d178eab14737"
     gradientUnits="userSpaceOnUse"
     x1="28.2"
     y1="-108.368"
     x2="14.107"
     y2="-79.066"
     gradientTransform="matrix(-1 0 0 1 124.88 0)"><stop
       offset=".31"
       stop-color="#fce8b2"
       id="stop103" /><stop
       offset=".399"
       stop-color="#ffcc80"
       id="stop104" /></linearGradient><g
     id="g43"
     transform="translate(-161.27432,0.0028514)"
     inkscape:label="box"><path
       d="m 223.81,4.84 -51.83,26.68 c -2.52,1.48 -1.8,5.09 -1.8,5.09 l 55.17,28.3 55.07,-27.86 c 0.05,-0.17 0.11,-1.21 -0.15,-3.19 -0.14,-1.04 -3.25,-2.94 -6.03,-4.51 C 245.71,13.23 226.95,4.93 226.95,4.93 225.75,4.46 224.75,4.3 223.81,4.84 Z"
       fill="#dea66c"
       id="path30" /><path
       d="m 171.01,96.16 c 3.04,2.01 8.59,4.65 14.2,7.69 13.04,7.06 29.52,15.64 37.72,19.01 2.45,1.01 3.75,0.51 3.75,0.51 0,0 -1.15,-56.3 -1.11,-59.45 0.02,-1.32 -1.59,-3.12 -2.74,-3.86 -1.78,-1.14 -5.64,-2.92 -5.64,-2.92 0,0 -13.52,-6.72 -27.02,-13.8 -6.42,-3.37 -11.84,-6.82 -17.67,-9.66 -1.06,-0.52 -2.33,0.12 -2.32,1.31 v 59.8 c 0,0.58 0.35,1.06 0.83,1.37 z"
       fill="#bf8049"
       id="path31" /><path
       d="m 278.85,96.51 -51.76,26.69 c -0.83,0.43 -1.82,-0.17 -1.82,-1.11 l 0.09,-57.18 c 0,-0.55 -0.41,-1.98 -0.56,-2.48 -0.14,-0.5 0.35,-1.51 0.81,-1.74 l 51.76,-26.66 c 1.36,-0.7 2.99,0.29 2.99,1.82 v 58.19 c 0,1.04 -0.59,1.99 -1.51,2.47 z"
       fill="#9e673c"
       id="path32" /><path
       d="m 251.82,52.26 c 3.01,-1.55 26.65,-14.19 26.65,-15.58 0,-1.14 -22.75,10.91 -22.75,10.91 0,0 -28.36,14.51 -28.82,15.74 -0.46,1.22 22.26,-9.7 24.92,-11.07 z"
       fill="#784d30"
       id="path33" /><g
       opacity="0.85"
       id="g38"><path
         d="m 173.36,93.22 c 3.69,1.86 7.35,3.78 11.91,6.11 v -1.78 c -4.54,-2.32 -8.21,-4.23 -11.91,-6.11 z"
         fill="#784d30"
         id="path34" /><path
         d="m 181.13,94.02 c 1.04,0.53 1.56,0.8 2.54,1.3 0.01,-3.1 0.01,-4.65 0.02,-7.75 -0.98,-0.5 -1.49,-0.76 -2.52,-1.29 -0.02,3.1 -0.03,4.65 -0.04,7.74 z"
         fill="#784d30"
         id="path35" /><path
         d="m 174.67,90.71 c 0.86,0.44 1.34,0.69 2.32,1.19 l 0.05,-7.72 c -0.99,-0.51 -1.47,-0.75 -2.34,-1.21 -0.01,3.09 -0.02,4.64 -0.03,7.74 z"
         fill="#784d30"
         id="path36" /><path
         d="m 179.5,86.36 c 2.37,1.21 3.63,1.86 5.72,2.92 -1.04,-1.89 -1.61,-2.85 -2.75,-4.79 -1.17,0.76 -1.78,1.13 -2.97,1.87 z"
         fill="#784d30"
         id="path37" /><path
         d="m 173.36,83.2 c 1.77,0.92 2.96,1.53 5.3,2.73 -1.16,-1.95 -1.74,-2.92 -2.81,-4.83 -1.09,0.79 -1.6,1.2 -2.49,2.1 z"
         fill="#784d30"
         id="path38" /></g><g
       opacity="0.85"
       id="g41"><path
         d="m 192.35,101.77 c 0.83,0.43 1.26,0.66 2.09,1.09 -0.06,-3.68 -0.09,-5.52 -0.16,-9.2 -0.8,-0.42 -1.2,-0.63 -2,-1.04 0.04,3.66 0.05,5.49 0.07,9.15 z"
         fill="#784d30"
         id="path39" /><path
         d="m 189.31,101.12 c 3.04,1.6 5.4,2.8 8.32,4.36 -0.02,-1.05 -0.83,-2.32 -1.93,-2.91 -1.72,-0.91 -2.7,-1.41 -4.44,-2.32 -1.12,-0.57 -1.95,-0.16 -1.95,0.87 z"
         fill="#784d30"
         id="path40" /><path
         d="m 195.1,90.73 1.28,2.71 c -0.4,0.85 -0.61,1.28 -1.03,2.12 0.36,-0.03 0.54,-0.04 0.9,-0.07 0.48,-0.64 0.72,-0.96 1.18,-1.6 -0.42,-0.99 -0.64,-1.49 -1.08,-2.48 1.22,0.67 1.82,1.01 2.93,1.66 0,3.58 -2.34,5.16 -5.86,3.32 -3.52,-1.83 -5.85,-5.92 -5.85,-9.51 2.62,1.31 4.38,2.17 7.53,3.85 z"
         fill="#784d30"
         id="path41" /></g><path
       d="m 260.68,42.33 c -0.5,-0.37 -54.32,-28.49 -54.32,-28.49 l -16.68,8.6 55.11,28.37 c 4.76,-2.45 12.32,-6.35 16.12,-8.3 -0.07,-0.06 -0.14,-0.12 -0.23,-0.18 z"
       fill="#ffe0b2"
       id="path42" /><path
       d="m 260.91,42.5 c -8.34,3.77 -16.5,8.11 -16.5,8.11 0.21,0.09 0.73,0.74 0.73,0.74 -0.03,1.16 -0.05,2.31 -0.08,3.47 -0.14,5.95 -0.22,11.91 -0.42,17.86 0.67,-0.4 1.48,0.48 2.09,0 0.94,-0.74 2.94,-4 3.24,-4.1 0.4,-0.13 0.83,-0.03 1.24,-0.05 1.8,-0.1 5.83,-3.77 6.69,-3.94 0.83,-0.16 3.57,0.37 3.57,0.37 0,0 -0.21,-18.15 -0.26,-21.2 -0.02,-0.87 -0.3,-1.26 -0.3,-1.26 z"
       fill="#bf9f85"
       id="path43" /></g><style
     type="text/css"
     id="style1">
	.st0{fill:#40B3C3;}
	.st1{opacity:0.28;fill:#40B3C3;}
</style><g
     id="g2"
     transform="matrix(0.34980507,0,0,0.34980507,67.176387,62.464102)"
     style="stroke-width:1.46916"
     inkscape:label="xeus-r"
     inkscape:path-effect="#path-effect2"><g
       id="g1"
       style="stroke-width:1.46916;fill:#589c9d;fill-opacity:1">
	<path
   id="path4143_3_"
   class="st0"
   d="m 2.4044385,67.448706 c 0.101495,-0.04855 0.3059375,-0.04205 0.4074325,-0.09059 2.5492434,-0.385287 4.5972471,-0.119017 4.7002213,-0.06408 1.9478834,0.420649 3.6986317,1.458032 4.9430937,2.964033 0.413896,0.431902 5.374796,5.647971 8.876375,9.356955 -0.800045,1.690364 -1.500939,3.231448 -2.102449,4.399974 -9.13e-4,-0.107434 -0.102433,-0.05585 -0.103346,-0.163284 C 15.543404,80.242677 8.9106363,73.172973 8.6068255,72.776696 7.6761171,71.848839 6.5440075,71.130604 5.0089179,70.922725 c 0,0 -1.5361407,-0.311923 -3.5738229,0.03651 -0.81580861,0.0764 -2.23886308,0.550384 -4.0666149,1.216759 0.2791957,18.714635 0.246822,27.175719 0.3543717,46.518561 1.83434889,-1.23707 3.25903659,-2.23991 4.0723649,-3.01488 2.0336866,-1.7733 3.5534663,-3.68938 3.5534663,-3.68938 1.5199437,-1.91722 2.7324463,-3.8783 3.537641,-5.61852 0.5098577,-1.24176 6.53598,-14.099301 10.143389,-21.823649 2.90241,-6.443026 10.295696,-21.711407 10.794857,-22.787154 1.198367,-2.667342 2.904313,-5.345578 4.82587,-7.608735 -0.001,-0.101598 2.123703,-2.358005 4.662753,-4.401875 0.0015,-0.0011 0.506839,-0.347266 0.508377,-0.34832 C 27.209018,55.534149 14.968199,61.439269 2.4044385,67.448706 Z M 44.831302,49.191332 c -1.831451,1.09697 -3.255264,1.994889 -4.066792,2.696591 -2.131714,1.651452 -3.648236,3.416976 -3.648236,3.416976 -1.517471,1.664784 -2.622443,3.441113 -3.523822,5.232699 -0.399098,0.922045 -6.597125,13.633546 -10.101328,21.099244 -2.903402,6.195027 -10.336025,22.129988 -10.839106,23.157848 -1.204546,2.81187 -2.9204233,5.68601 -4.8438427,8.14149 8.204e-4,0.10792 -2.1272058,2.56551 -4.668778,4.83693 3.597e-4,-2.8e-4 -0.5091928,0.38989 -0.5088331,0.38961 12.4726708,-6.89208 25.0035258,-13.57319 37.4245678,-20.068056 -1.71e-4,4.5e-5 -0.407042,0.108292 -0.407213,0.108337 -2.547115,0.495092 -4.59118,0.30413 -4.693795,0.252553 -1.944522,-0.351419 -3.686792,-1.340814 -4.924897,-2.825528 -0.41173,-0.423809 -5.347367,-5.555691 -8.843618,-9.26808 0.802474,-1.705778 1.501948,-3.242872 2.104318,-4.408362 9.23e-4,0.106935 0.102444,0.05545 0.103368,0.162381 3.602128,3.865246 9.975522,10.393335 10.388078,10.922065 0.926182,0.899438 2.053751,1.580764 3.586149,1.732205 0,0 1.532737,0.255172 3.569545,-0.174555 0.815175,-0.109199 2.238498,-0.639993 4.067386,-1.379637 -3.9e-4,-0.03862 0.0233,2.219689 0.02291,2.181071 2e-5,-1e-5 0.101461,-0.05278 0.101482,-0.05279 -0.167433,-15.30905 -0.276086,-31.165895 -0.399387,-46.103288 8e-6,-3e-6 0.101838,-0.0497 0.101846,-0.04971 z"
   style="stroke-width:1.46916;fill:#589c9d;fill-opacity:1"
   inkscape:original-d="m 5,0 c 0.1,0 0.3,0.1 0.4,0.1 2.5,0.8 4.5,2 4.6,2.1 1.9,1.3 3.6,3.1 4.8,5.1 0.4,0.6 5.2,7.8 8.6,12.9 -0.8,1.2 -1.5,2.3 -2.1,3.1 0,-0.1 -0.1,-0.1 -0.1,-0.2 C 17.6,17.9 11.4,8.6 11,7.9 10.1,6.6 9,5.4 7.5,4.5 7.5,4.5 6,3.5 4,2.9 3.2,2.6 1.8,2.4 0,2.2 V 44.6 C 1.8,44.4 3.2,44.2 4,43.9 6,43.3 7.5,42.3 7.5,42.3 9,41.3 10.2,40.1 11,38.9 11.4,38.2 17.6,29 21.1,23.7 24,19.1 31.4,8.1 31.9,7.3 c 1.2,-2 2.9,-3.8 4.8,-5.1 0,-0.1 2.1,-1.3 4.6,-2.1 L 41.8,0 Z m 41.7,2.2 c -1.8,0.2 -3.2,0.4 -4,0.7 -2.1,0.6 -3.6,1.6 -3.6,1.6 -1.5,0.9 -2.6,2.1 -3.5,3.4 -0.4,0.7 -6.6,9.9 -10.1,15.2 -2.9,4.4 -10.3,15.5 -10.8,16.2 -1.2,2 -2.9,3.8 -4.8,5.1 0,0.1 -2.1,1.3 -4.6,2.1 l -0.5,0.1 h 36.8 l -0.4,-0.1 c -2.5,-0.8 -4.5,-2 -4.6,-2.1 -1.9,-1.3 -3.6,-3.1 -4.8,-5.1 -0.4,-0.6 -5.2,-7.8 -8.6,-12.9 0.8,-1.2 1.5,-2.3 2.1,-3.1 0,0.1 0.1,0.1 0.1,0.2 3.5,5.3 9.7,14.5 10.1,15.2 0.9,1.3 2,2.5 3.5,3.4 0,0 1.5,1 3.5,1.6 0.8,0.3 2.2,0.5 4,0.7 v 2.1 h 0.1 V 2.2 Z" />
	<path
   id="path7-3_4_"
   class="st1"
   d="m 23.391451,81.902109 c -0.60237,1.165376 -1.301842,2.702312 -2.104311,4.407905 3.601189,3.823247 8.222646,8.81844 8.843654,9.266987 1.238104,1.484575 2.980372,2.473911 4.92488,2.825337 0.0011,0.104787 2.146666,0.242565 4.693762,-0.252432 0.152233,-0.07962 0.356488,-0.08177 0.508721,-0.161391 1.624091,-0.849041 3.248226,-1.695908 4.871822,-2.540525 -4.17e-4,-0.03798 -0.02362,-2.246614 -0.02404,-2.284596 -1.828878,0.739566 -3.252193,1.270298 -4.067363,1.379477 -2.036795,0.429663 -3.569524,0.17449 -3.569524,0.17449 -1.53239,-0.151448 -2.659956,-0.832728 -3.586135,-1.732087 -0.412556,-0.528684 -6.785958,-7.056101 -10.388102,-10.920805 0,0 -9.23e-4,-0.106915 -0.103368,-0.16236 z M 2.2015199,67.545761 c -0.00969,0.0046 -4.8586831,2.321281 -4.8683779,2.325918 -2.863e-4,-0.01819 0.035624,2.322499 0.035338,2.30431 1.82775182,-0.666375 3.25080629,-1.140363 4.0666149,-1.216759 2.0376822,-0.348428 3.5738229,-0.03651 3.5738229,-0.03651 1.5350896,0.207879 2.6671992,0.926114 3.5979076,1.853971 0.4151122,0.541454 6.8157995,7.237182 10.4174245,11.126588 9.16e-4,0.107448 0.102429,0.05586 0.103345,0.163307 0.601513,-1.16865 1.302407,-2.709896 2.10245,-4.400426 -3.577564,-3.79005 -8.280336,-8.916307 -8.87636,-9.358487 -1.244464,-1.506252 -2.9952156,-2.543874 -4.9430903,-2.964721 -0.00148,-0.103875 -2.1509685,-0.321408 -4.7001879,0.06371 -0.152101,0.07278 -0.356786,0.06631 -0.5088869,0.139096 z"
   style="stroke-width:1.46916;fill:#589c9d;fill-opacity:1"
   inkscape:original-d="m 25.4,23.3 c -0.6,0.8 -1.3,1.9 -2.1,3.1 3.4,5.1 8.1,12.3 8.6,12.9 1.2,2 2.9,3.8 4.8,5.1 0,0.1 2.1,1.3 4.6,2.1 0.2,0 0.4,0.1 0.5,0.1 h 4.8 V 44.4 C 44.8,44.2 43.4,44 42.6,43.7 40.6,43.1 39.1,42.1 39.1,42.1 37.6,41.2 36.5,40 35.6,38.7 35.2,38 29,28.8 25.5,23.5 v 0 c 0,0 0,-0.1 -0.1,-0.2 M 4.8,0 H 0 v 2.2 c 1.8,0.2 3.2,0.4 4,0.7 2,0.6 3.5,1.6 3.5,1.6 1.5,0.9 2.6,2.1 3.5,3.4 0.4,0.7 6.6,9.9 10.1,15.2 v 0 c 0,0.1 0.1,0.1 0.1,0.2 0.6,-0.8 1.3,-1.9 2.1,-3.1 C 19.9,15.1 15.2,7.9 14.7,7.3 13.5,5.3 11.8,3.5 9.9,2.2 9.9,2.1 7.8,0.9 5.3,0.1 5.2,0.1 5,0 4.8,0" />
	<path
   class="st0"
   d="m 140.59644,31.901786 c 0.007,6.286013 -4.59137,10.848277 -9.78572,13.494612 -3.97482,2.025026 -7.74113,3.133925 -10.69671,2.704942 -0.003,0.0063 1.01821,-2.444915 1.01558,-2.438584 2.6515,0.281478 6.00997,-0.414335 9.57856,-2.227812 3.97327,-2.019121 7.54692,-5.44855 7.54142,-10.348671 -0.005,-4.102098 -3.78305,-3.110876 -8.27027,-2.076578 -4.79253,1.086372 -8.8752,1.399834 -8.88295,-4.161525 -0.008,-5.558632 4.48275,-9.980078 9.37615,-12.382972 2.75426,-1.352472 5.60537,-2.448926 8.25734,-2.447808 -0.008,0.02051 -0.90955,2.432505 -0.91722,2.453016 -2.24425,0.0016 -4.68997,0.801248 -7.34132,2.105553 -3.97552,1.95572 -7.13839,4.821324 -7.13239,9.262648 0.005,3.836112 2.76069,3.681562 7.5543,2.600193 5.30263,-1.234715 9.69681,-2.228416 9.70323,3.462986 z m -32.72501,10.255433 c 0.0203,7.43169 -1.08633,13.297556 -8.098969,16.840615 -0.0091,0.0046 -0.600729,0.303508 -0.609783,0.308082 -7.010126,3.54171 -8.151868,-1.113351 -8.183911,-8.711168 -0.02211,-5.243467 -0.04855,-11.554694 -0.05885,-16.74107 -0.81453,0.808268 -1.730307,1.768469 -2.441845,2.730696 0.0052,1.899019 0.05755,14.04918 0.06279,15.948198 0.0299,6.688601 1.285441,13.64682 10.223276,9.123154 -0.04505,0.0228 1.365885,-0.691328 1.320835,-0.668528 8.83985,-4.474324 10.14703,-12.676951 10.23164,-19.44038 -0.0128,-4.992902 -0.0285,-10.866066 -0.0302,-15.831345 -0.71373,-0.255035 -1.52928,-0.358642 -2.44675,-0.310865 -4e-5,5.263615 0.0172,11.453089 0.0317,16.752611 z M 79.584249,55.359751 c 4.5e-5,0.0083 0.0044,0.815374 0.0044,0.823686 2.062306,-1.030971 -23.201131,11.615711 -21.138825,10.58474 2.66e-4,0.03654 0.0088,1.212254 0.0091,1.248798 0.478164,9.684162 4.757391,9.5881 10.238521,6.805484 3.350293,-1.70085 5.983697,-3.657168 8.817828,-6.743398 -0.016,-0.02762 0.942148,1.625412 0.926153,1.59779 -2.832074,3.188464 -6.075076,5.455755 -9.728317,7.314312 C 61.812421,80.501824 56.206662,80.4394 56.107796,67.211924 56.002117,53.072935 62.492528,47.874956 67.998498,45.160738 75.129904,41.54298 79.52012,43.335443 79.584249,55.359751 Z m -2.448157,-0.223259 c -0.05251,-9.458241 -3.727689,-10.496925 -9.227326,-7.781524 -4.991076,2.464303 -9.451224,6.592289 -9.577266,17.176319 1.046334,-0.523619 17.758258,-8.871176 18.804592,-9.394795 z"
   id="path1"
   style="stroke-width:1.97229846;fill:#589c9d;fill-opacity:1;stroke-dasharray:none;stroke:#589c9d;stroke-opacity:1"
   inkscape:original-d="m 140.6,31.9 c 0,6.3 -4.5,8.5 -9.6,8.5 -3.9,0 -7.6,-0.8 -10.5,-2.7 l 1,-1.9 c 2.6,1.6 5.9,2.6 9.4,2.6 3.9,0 7.4,-1.6 7.4,-6.5 0,-4.1 -3.7,-5 -8.1,-6.2 -4.7,-1.3 -8.7,-3 -8.7,-8.5 0,-5.5 4.4,-7.7 9.2,-7.7 2.7,0 5.5,0.3 8.1,1.6 l -0.9,2 c -2.2,-1.1 -4.6,-1.5 -7.2,-1.5 -3.9,0 -7,1.3 -7,5.7 0,3.8 2.7,5 7.4,6.3 5.2,1.4 9.5,2.6 9.5,8.3 z m -32.1,-6.1 c 0,7.3 -1.1,12.5 -8,12.5 h -0.6 c -6.9,0 -8,-5.1 -8,-12.5 V 9.4 c -0.8,0.4 -1.7,0.9 -2.4,1.5 v 15.6 c 0,6.5 1.2,13.9 10,13.9 h 1.3 c 8.7,0 10,-7.4 10.1,-14 V 10.8 c -0.7,-0.6 -1.5,-1.1 -2.4,-1.5 z M 80.7,24.9 v 0.8 0 H 59.9 v 1.2 c 0.4,9.5 4.6,11.5 10,11.5 3.3,0 5.9,-0.6 8.7,-2.2 l 0.9,2 c -2.8,1.7 -6,2.3 -9.6,2.3 C 63.1,40.5 57.6,37.7 57.6,25 57.6,11.4 64,9.4 69.4,9.4 c 7,-0.1 11.3,3.8 11.3,15.5 z m -2.4,-1.4 c 0,-9.2 -3.6,-12 -9,-12 -4.9,0 -9.3,1.9 -9.5,12 z" />
</g><path
       class="jp-icon-selectable"
       d="m 118.85341,83.06744 c -11.92214,6.127683 -21.747761,4.740705 -21.820476,-3.202718 -0.07293,-7.966621 9.645676,-19.474476 21.681626,-25.600206 12.04595,-6.130827 21.81109,-4.671051 21.79702,3.209519 -0.0142,7.938097 -9.7548,19.475367 -21.65817,25.593405 z m 3.20272,-24.835894 c -9.14839,4.685268 -16.52963,12.893881 -16.48849,18.349874 0.041,5.432458 7.47752,6.023223 16.56085,1.336559 9.08495,-4.687502 15.81612,-11.222726 15.82315,-18.037363 0.007,-6.798749 -6.74478,-6.335535 -15.89551,-1.64907 z"
       fill="#b3b3b3"
       fill-rule="evenodd"
       id="path1-8"
       style="fill:url(#linearGradient2);fill-opacity:1;stroke-width:0.0872886"
       inkscape:original-d="m 119.11793,71.775038 c -11.83084,0 -21.421529,-6.423196 -21.421529,-14.346603 0,-7.923466 9.590689,-14.346663 21.421529,-14.346663 11.83075,0 21.42156,6.423197 21.42156,14.346663 0,7.923407 -9.59081,14.346603 -21.42156,14.346603 z m 3.27894,-23.084214 c -8.99247,0 -16.28229,4.391175 -16.28229,9.80796 0,5.416784 7.28982,9.80796 16.28229,9.80796 8.99238,0 15.6286,-3.002138 15.6286,-9.80796 0,-6.803689 -6.63622,-9.80796 -15.6286,-9.80796 z" /><path
       class="jp-icon-selectable"
       d="m 130.13333,70.766464 c 0,0 1.31598,-0.292013 2.08104,-0.308711 0.26571,-0.0059 0.72459,0.01942 1.05667,0.193084 0.32509,0.170254 0.4839,0.431541 0.4839,0.431541 1.7397,1.971071 3.47398,3.925436 5.22175,5.885139 -2.78302,1.459567 -5.56225,2.908733 -8.34071,4.350457 -1.32975,-1.722425 -2.65287,-3.448441 -3.97377,-5.182743 0,0 -0.81022,-0.939807 -1.30519,-1.078005 -0.41312,-0.115193 -0.58863,-0.141546 -0.9954,0.06875 -0.28326,0.146441 -1.98626,1.026077 -1.98626,1.026077 0.0236,3.130367 0.0581,6.273455 0.11118,9.366971 -2.45556,1.263158 -4.90849,2.520552 -7.36185,3.774793 -0.16146,-7.67543 -0.20369,-16.151973 -0.22609,-24.063041 4.97357,-2.546085 9.93188,-5.09127 14.91488,-7.660452 0,0 6.80093,-3.384146 6.79644,2.980576 -0.004,6.376897 -6.4775,10.215961 -6.4775,10.215961 0,0 9.1e-4,-3.96e-4 9.1e-4,-3.96e-4 z m -3.24525,-6.424179 c -0.0479,0.02473 -4.44449,2.289997 -4.49241,2.314726 -3.2e-4,-0.154056 0.0119,4.272482 0.0116,4.118426 -0.051,0.02631 4.54048,-2.347817 4.48951,-2.321502 0,0 2.07932,-1.082884 2.07626,-3.169756 -0.003,-2.129023 -2.08477,-0.942004 -2.08477,-0.942004 0,0 -1.6e-4,1.1e-4 -1.6e-4,1.1e-4 z"
       fill="#3465b0"
       fill-rule="evenodd"
       id="path2"
       style="fill:#50463f;fill-opacity:1;stroke-width:0.0872886"
       inkscape:original-d="m 130.32019,65.302646 c 0,0 1.2966,0.391269 2.04987,0.77235 0.26166,0.132294 0.71328,0.396192 1.0397,0.742644 0.31952,0.339371 0.47495,0.683231 0.47495,0.683231 l 5.10965,8.61505 -8.25855,0.0037 -3.86192,-7.252203 c 0,0 -0.791,-1.358736 -1.27743,-1.752718 -0.40586,-0.328576 -0.57857,-0.445586 -0.98029,-0.445586 -0.27979,0 -1.96222,0 -1.96222,0 l 0.001,9.4453 -7.30796,0.0031 V 51.990123 h 14.67525 c 0,0 6.68414,0.12055 6.68414,6.479827 0,6.359269 -6.38709,6.832618 -6.38709,6.832618 z m -3.1786,-8.078896 -4.42417,-0.0028 -0.002,4.102546 4.42633,-0.0015 c 0,0 2.04979,-0.0064 2.04979,-2.086925 0,-2.12239 -2.04979,-2.011347 -2.04979,-2.011347 z" /></g></svg>
