<?xml version="1.0" encoding="UTF-8" standalone="no"?>
<!-- Uploaded to: SVG Repo, www.svgrepo.com, Generator: SVG Repo Mixer Tools -->

<svg
   width="800px"
   height="800px"
   viewBox="0 0 128 128"
   aria-hidden="true"
   role="img"
   class="iconify iconify--noto"
   preserveAspectRatio="xMidYMid meet"
   version="1.1"
   id="svg113"
   sodipodi:docname="package-octave.svg"
   inkscape:version="1.4.2 (ebf0e940d0, 2025-05-08)"
   xml:space="preserve"
   xmlns:inkscape="http://www.inkscape.org/namespaces/inkscape"
   xmlns:sodipodi="http://sodipodi.sourceforge.net/DTD/sodipodi-0.dtd"
   xmlns:xlink="http://www.w3.org/1999/xlink"
   xmlns="http://www.w3.org/2000/svg"
   xmlns:svg="http://www.w3.org/2000/svg"><defs
     id="defs113"><linearGradient
       id="linearGradient6"><stop
         id="stop5"
         style="stop-color:#006a8f;stop-opacity:1;"
         offset="0" /><stop
         id="stop6"
         style="stop-color:#81b8b8;stop-opacity:0.71911472;"
         offset="1" /></linearGradient><inkscape:path-effect
       effect="envelope"
       id="path-effect1"
       is_visible="true"
       lpeversion="1"
       yy="true"
       xx="true"
       bendpath1="M 3.1442907,-4.2790562e-6 277.98037,-134.48823"
       bendpath2="m 276.21079,-120.33157 -3.53916,260.28376"
       bendpath3="M 3.1442907,283.28832 274.44121,143.49135"
       bendpath4="M 3.1442907,-4.2790562e-6 V 283.28832"
       bendpath2-nodetypes="cc"
       bendpath1-nodetypes="cc"
       bendpath3-nodetypes="cc" /><linearGradient
       id="linearGradient123"
       x1="0.74144253"
       x2="590.86259"
       y1="3.6658269"
       y2="593.78698"
       gradientUnits="userSpaceOnUse"
       spreadMethod="pad"
       gradientTransform="scale(1.2219423,0.81836924)"><stop
         offset="0"
         stop-color="#cbced0"
         stop-opacity="1"
         id="stop122"
         style="stop-color:#e7e9ec;stop-opacity:1;" /><stop
         offset="1"
         stop-color="#84838b"
         stop-opacity="1"
         id="stop123"
         style="stop-color:#6f6f75;stop-opacity:0.53718585;" /></linearGradient><inkscape:path-effect
       effect="envelope"
       id="path-effect121"
       is_visible="true"
       lpeversion="1"
       yy="true"
       xx="true"
       bendpath1="M 0.906,3 725.69029,335.12625"
       bendpath2="m 699.85825,338.81655 3.69029,563.44258"
       bendpath3="M 0.906,559.062 696.16795,920.71059"
       bendpath4="M 0.906,3 V 559.062"
       bendpath1-nodetypes="cc"
       bendpath3-nodetypes="cc"
       bendpath2-nodetypes="cc" /><linearGradient
       id="linearGradient119"
       x1="0.74144253"
       x2="590.86259"
       y1="3.6658269"
       y2="593.78698"
       gradientUnits="userSpaceOnUse"
       spreadMethod="pad"
       gradientTransform="scale(1.2219423,0.81836924)"><stop
         offset="0"
         stop-color="#cbced0"
         stop-opacity="1"
         id="stop118" /><stop
         offset="1"
         stop-color="#84838b"
         stop-opacity="1"
         id="stop119"
         style="stop-color:#84838b;stop-opacity:0.72245622;" /></linearGradient><inkscape:path-effect
       effect="envelope"
       id="path-effect117"
       is_visible="true"
       lpeversion="1"
       yy="true"
       xx="true"
       bendpath1="M 6.9887288,305.4816 722,3"
       bendpath2="M 722,3 V 559.062"
       bendpath3="M 12.390186,915.55817 722,559.062"
       bendpath4="m 28.594557,310.88305 3.600971,592.07172"
       bendpath3-nodetypes="cc"
       bendpath1-nodetypes="cc"
       bendpath4-nodetypes="cc" /><inkscape:path-effect
       effect="envelope"
       id="path-effect116"
       is_visible="true"
       lpeversion="1"
       yy="true"
       xx="true"
       bendpath1="M 298.00005,152.938 H 696.00001"
       bendpath2="M 696.00001,152.938 V 559.062"
       bendpath3="M 298.00005,559.062 H 696.00001"
       bendpath4="M 298.00005,152.938 V 559.062" /><inkscape:path-effect
       effect="perspective-envelope"
       up_left_point="298.00005,152.938"
       up_right_point="696.00001,152.938"
       down_left_point="298.00005,559.062"
       down_right_point="696.00001,559.062"
       id="path-effect115"
       is_visible="true"
       lpeversion="1"
       deform_type="perspective"
       horizontal_mirror="false"
       vertical_mirror="false"
       overflow_perspective="false" /><inkscape:path-effect
       effect="perspective-envelope"
       up_left_point="2.11,3"
       up_right_point="722,3"
       down_left_point="0.906,559.062"
       down_right_point="722,559.062"
       id="path-effect114"
       is_visible="true"
       lpeversion="1"
       deform_type="perspective"
       horizontal_mirror="false"
       vertical_mirror="false"
       overflow_perspective="false" /><linearGradient
       id="g"
       x1="0.74144253"
       x2="590.86259"
       y1="3.6658269"
       y2="593.78698"
       gradientUnits="userSpaceOnUse"
       spreadMethod="pad"
       gradientTransform="scale(1.2219423,0.81836924)"><stop
         offset="0"
         stop-color="#cbced0"
         stop-opacity="1"
         id="stop1" /><stop
         offset="1"
         stop-color="#84838b"
         stop-opacity="1"
         id="stop2" /></linearGradient><linearGradient
       id="b"
       x1="0"
       x2="1"
       y1="0"
       y2="1"
       gradientUnits="objectBoundingBox"
       spreadMethod="pad"><stop
         offset="0"
         stop-color="#276dc3"
         stop-opacity="1"
         id="stop3" /><stop
         offset="1"
         stop-color="#165caa"
         stop-opacity="1"
         id="stop4" /></linearGradient><inkscape:path-effect
       effect="perspective-envelope"
       up_left_point="2.11,3"
       up_right_point="722,3"
       down_left_point="0.906,559.062"
       down_right_point="722,559.062"
       id="path-effect114-9"
       is_visible="true"
       lpeversion="1"
       deform_type="perspective"
       horizontal_mirror="false"
       vertical_mirror="false"
       overflow_perspective="false" /><inkscape:path-effect
       effect="envelope"
       id="path-effect117-3"
       is_visible="true"
       lpeversion="1"
       yy="true"
       xx="true"
       bendpath1="M 6.9887288,305.4816 722,3"
       bendpath2="M 722,3 V 559.062"
       bendpath3="M 12.390186,915.55817 722,559.062"
       bendpath4="m 28.594557,310.88305 3.600971,592.07172"
       bendpath3-nodetypes="cc"
       bendpath1-nodetypes="cc"
       bendpath4-nodetypes="cc" /><inkscape:path-effect
       effect="perspective-envelope"
       up_left_point="2.11,3"
       up_right_point="722,3"
       down_left_point="0.906,559.062"
       down_right_point="722,559.062"
       id="path-effect114-96"
       is_visible="true"
       lpeversion="1"
       deform_type="perspective"
       horizontal_mirror="false"
       vertical_mirror="false"
       overflow_perspective="false" /><inkscape:path-effect
       effect="envelope"
       id="path-effect117-38"
       is_visible="true"
       lpeversion="1"
       yy="true"
       xx="true"
       bendpath1="M 6.9887288,305.4816 722,3"
       bendpath2="M 722,3 V 559.062"
       bendpath3="M 12.390186,915.55817 722,559.062"
       bendpath4="m 28.594557,310.88305 3.600971,592.07172"
       bendpath3-nodetypes="cc"
       bendpath1-nodetypes="cc"
       bendpath4-nodetypes="cc" /><inkscape:path-effect
       effect="perspective-envelope"
       up_left_point="2.11,3"
       up_right_point="722,3"
       down_left_point="0.906,559.062"
       down_right_point="722,559.062"
       id="path-effect114-9-4"
       is_visible="true"
       lpeversion="1"
       deform_type="perspective"
       horizontal_mirror="false"
       vertical_mirror="false"
       overflow_perspective="false" /><inkscape:path-effect
       effect="envelope"
       id="path-effect117-3-8"
       is_visible="true"
       lpeversion="1"
       yy="true"
       xx="true"
       bendpath1="M 6.9887288,305.4816 722,3"
       bendpath2="M 722,3 V 559.062"
       bendpath3="M 12.390186,915.55817 722,559.062"
       bendpath4="m 28.594557,310.88305 3.600971,592.07172"
       bendpath3-nodetypes="cc"
       bendpath1-nodetypes="cc"
       bendpath4-nodetypes="cc" /><inkscape:path-effect
       effect="envelope"
       id="path-effect121-3"
       is_visible="true"
       lpeversion="1"
       yy="true"
       xx="true"
       bendpath1="M 0.906,3 725.69029,335.12625"
       bendpath2="m 699.85825,338.81655 3.69029,563.44258"
       bendpath3="M 0.906,559.062 696.16795,920.71059"
       bendpath4="M 0.906,3 V 559.062"
       bendpath1-nodetypes="cc"
       bendpath3-nodetypes="cc"
       bendpath2-nodetypes="cc" /><radialGradient
       cx="182.9837"
       cy="395.04871"
       r="148.95309"
       fx="182.9837"
       fy="395.04871"
       id="radialGradient3033"
       xlink:href="#linearGradient6"
       gradientUnits="userSpaceOnUse"
       gradientTransform="matrix(1.9367132,-2.1046661,6.4603259,7.0205689,-2817.9547,-2144.284)" /><linearGradient
       id="linearGradient3755"><stop
         id="stop3757"
         style="stop-color:#008cbe;stop-opacity:1"
         offset="0" /><stop
         id="stop3759"
         style="stop-color:#b2ffff;stop-opacity:1"
         offset="1" /></linearGradient><inkscape:path-effect
       effect="envelope"
       id="path-effect1-5"
       is_visible="true"
       lpeversion="1"
       yy="true"
       xx="true"
       bendpath1="M 3.1442907,-4.2790562e-6 277.98037,-134.48823"
       bendpath2="m 276.21079,-120.33157 -3.53916,260.28376"
       bendpath3="M 3.1442907,283.28832 274.44121,143.49135"
       bendpath4="M 3.1442907,-4.2790562e-6 V 283.28832"
       bendpath2-nodetypes="cc"
       bendpath1-nodetypes="cc"
       bendpath3-nodetypes="cc" /><radialGradient
       cx="182.9837"
       cy="395.04871"
       r="148.95309"
       fx="182.9837"
       fy="395.04871"
       id="radialGradient3033-6"
       xlink:href="#linearGradient3755"
       gradientUnits="userSpaceOnUse"
       gradientTransform="matrix(1.9367132,-2.1046661,6.4603259,7.0205689,-2817.9547,-2144.284)" /></defs><sodipodi:namedview
     id="namedview113"
     pagecolor="#505050"
     bordercolor="#eeeeee"
     borderopacity="1"
     inkscape:showpageshadow="0"
     inkscape:pageopacity="0"
     inkscape:pagecheckerboard="0"
     inkscape:deskcolor="#505050"
     inkscape:zoom="0.42205436"
     inkscape:cx="176.51755"
     inkscape:cy="611.29566"
     inkscape:window-width="2027"
     inkscape:window-height="1412"
     inkscape:window-x="0"
     inkscape:window-y="0"
     inkscape:window-maximized="0"
     inkscape:current-layer="svg113" /><linearGradient
     id="IconifyId17ecdb2904d178eab14737"
     gradientUnits="userSpaceOnUse"
     x1="28.2"
     y1="-108.368"
     x2="14.107"
     y2="-79.066"
     gradientTransform="matrix(-1 0 0 1 124.88 0)"><stop
       offset=".31"
       stop-color="#fce8b2"
       id="stop103" /><stop
       offset=".399"
       stop-color="#ffcc80"
       id="stop104" /></linearGradient><path
     d="m 62.53568,4.8428514 -51.83,26.6799996 c -2.52,1.48 -1.8,5.09 -1.8,5.09 l 55.17,28.3 55.07,-27.86 c 0.05,-0.17 0.11,-1.21 -0.15,-3.19 -0.14,-1.04 -3.25,-2.94 -6.03,-4.51 -28.53,-16.12 -47.29,-24.4199996 -47.29,-24.4199996 -1.2,-0.47 -2.2,-0.63 -3.14,-0.09 z"
     fill="#dea66c"
     id="path30" /><path
     d="m 9.73568,96.162851 c 3.04,2.01 8.59,4.649999 14.2,7.689999 13.04,7.06 29.52,15.64 37.72,19.01 2.45,1.01 3.75,0.51 3.75,0.51 0,0 -1.15,-56.299999 -1.11,-59.449999 0.02,-1.32 -1.59,-3.12 -2.74,-3.86 -1.78,-1.14 -5.64,-2.92 -5.64,-2.92 0,0 -13.52,-6.72 -27.02,-13.8 -6.42,-3.37 -11.84,-6.82 -17.67,-9.66 -1.06,-0.52 -2.33,0.12 -2.32,1.31 v 59.8 c 0,0.58 0.35,1.06 0.83,1.37 z"
     fill="#bf8049"
     id="path31" /><path
     d="m 117.57568,96.512851 -51.76,26.689999 c -0.83,0.43 -1.82,-0.17 -1.82,-1.11 l 0.09,-57.179999 c 0,-0.55 -0.41,-1.98 -0.56,-2.48 -0.14,-0.5 0.35,-1.51 0.81,-1.74 l 51.76,-26.66 c 1.36,-0.7 2.99,0.29 2.99,1.82 v 58.19 c 0,1.04 -0.59,1.99 -1.51,2.47 z"
     fill="#9e673c"
     id="path32" /><path
     d="m 90.54568,52.262851 c 3.01,-1.55 26.65,-14.19 26.65,-15.58 0,-1.14 -22.75,10.91 -22.75,10.91 0,0 -28.36,14.51 -28.82,15.74 -0.46,1.22 22.26,-9.7 24.92,-11.07 z"
     fill="#784d30"
     id="path33" /><g
     opacity="0.85"
     id="g38"
     transform="translate(-161.27432,0.0028514)"><path
       d="m 173.36,93.22 c 3.69,1.86 7.35,3.78 11.91,6.11 v -1.78 c -4.54,-2.32 -8.21,-4.23 -11.91,-6.11 z"
       fill="#784d30"
       id="path34" /><path
       d="m 181.13,94.02 c 1.04,0.53 1.56,0.8 2.54,1.3 0.01,-3.1 0.01,-4.65 0.02,-7.75 -0.98,-0.5 -1.49,-0.76 -2.52,-1.29 -0.02,3.1 -0.03,4.65 -0.04,7.74 z"
       fill="#784d30"
       id="path35" /><path
       d="m 174.67,90.71 c 0.86,0.44 1.34,0.69 2.32,1.19 l 0.05,-7.72 c -0.99,-0.51 -1.47,-0.75 -2.34,-1.21 -0.01,3.09 -0.02,4.64 -0.03,7.74 z"
       fill="#784d30"
       id="path36" /><path
       d="m 179.5,86.36 c 2.37,1.21 3.63,1.86 5.72,2.92 -1.04,-1.89 -1.61,-2.85 -2.75,-4.79 -1.17,0.76 -1.78,1.13 -2.97,1.87 z"
       fill="#784d30"
       id="path37" /><path
       d="m 173.36,83.2 c 1.77,0.92 2.96,1.53 5.3,2.73 -1.16,-1.95 -1.74,-2.92 -2.81,-4.83 -1.09,0.79 -1.6,1.2 -2.49,2.1 z"
       fill="#784d30"
       id="path38" /></g><g
     opacity="0.85"
     id="g41"
     transform="translate(-161.27432,0.0028514)"><path
       d="m 192.35,101.77 c 0.83,0.43 1.26,0.66 2.09,1.09 -0.06,-3.68 -0.09,-5.52 -0.16,-9.2 -0.8,-0.42 -1.2,-0.63 -2,-1.04 0.04,3.66 0.05,5.49 0.07,9.15 z"
       fill="#784d30"
       id="path39" /><path
       d="m 189.31,101.12 c 3.04,1.6 5.4,2.8 8.32,4.36 -0.02,-1.05 -0.83,-2.32 -1.93,-2.91 -1.72,-0.91 -2.7,-1.41 -4.44,-2.32 -1.12,-0.57 -1.95,-0.16 -1.95,0.87 z"
       fill="#784d30"
       id="path40" /><path
       d="m 195.1,90.73 1.28,2.71 c -0.4,0.85 -0.61,1.28 -1.03,2.12 0.36,-0.03 0.54,-0.04 0.9,-0.07 0.48,-0.64 0.72,-0.96 1.18,-1.6 -0.42,-0.99 -0.64,-1.49 -1.08,-2.48 1.22,0.67 1.82,1.01 2.93,1.66 0,3.58 -2.34,5.16 -5.86,3.32 -3.52,-1.83 -5.85,-5.92 -5.85,-9.51 2.62,1.31 4.38,2.17 7.53,3.85 z"
       fill="#784d30"
       id="path41" /></g><path
     d="m 99.40568,42.332851 c -0.5,-0.37 -54.32,-28.49 -54.32,-28.49 l -16.68,8.6 55.11,28.37 c 4.76,-2.45 12.32,-6.35 16.12,-8.3 -0.07,-0.06 -0.14,-0.12 -0.23,-0.18 z"
     fill="#ffe0b2"
     id="path42" /><g
     id="g1"
     transform="matrix(0.15148371,0,0,0.15148371,72.22441,69.214626)"
     inkscape:label="octave"
     style="stroke-width:1.05622"
     inkscape:path-effect="#path-effect1"><path
       d="M 48.32352,7.7612657 C 26.657859,42.125394 18.765627,79.935316 22.900003,113.63716 c 4.142919,33.77147 20.242946,62.94575 47.830798,79.51747 27.543928,16.54537 61.700629,17.71329 93.705069,5.75944 32.32169,-12.07235 61.83208,-37.26768 83.05383,-71.6681 21.03141,-34.091889 29.38199,-69.141199 25.67321,-100.221514 -3.64743,-30.5662005 -19.63,-59.612752 -46.74178,-78.303064 -27.53752,-18.983941 -60.09394,-22.554293 -92.822,-11.333917 -32.19439,11.037412 -63.72194,36.187302 -85.27561,70.3737907 z M 86.992578,8.6907349 C 104.01121,-18.285526 128.25971,-37.73125 153.25095,-46.399664 c 25.21437,-8.745811 50.65859,-6.383941 71.7301,7.774285 20.86473,14.019321 32.9525,36.4629889 35.53238,60.721055 2.60736,24.516546 -4.17896,52.017694 -20.88839,78.301714 -16.7658,26.37265 -40.18162,45.96402 -65.09112,55.58818 -24.83674,9.59604 -50.88953,9.17566 -72.05536,-3.46396 C 81.33123,139.89304 69.042189,117.40137 66.191152,91.334143 63.33815,65.248953 69.948711,35.707086 86.992578,8.6907349 Z"
       id="path5874"
       style="fill:url(#radialGradient3033);fill-opacity:1;stroke:none;stroke-width:8.92713"
       inkscape:original-d="M 49.676734,29.423844 C 5.7616386,77.147323 16.404616,166.08405 73.43582,228.06101 130.46702,290.03805 212.2931,301.58936 256.20828,253.86589 300.12346,206.14242 289.51075,117.20206 232.47946,55.225104 175.44825,-6.7520338 93.591915,-18.29971 49.676734,29.423844 Z M 89.498117,49.248199 C 124.0038,11.750263 187.44802,19.907008 231.2158,67.470322 274.98366,115.0338 282.48944,183.98 247.98375,221.47793 213.47807,258.97579 150.0172,250.83747 106.24933,203.27399 62.481472,155.71052 54.992433,86.746312 89.498117,49.248199 Z" /><path
       width="36.764847"
       height="36.764847"
       rx="6.5045505"
       ry="6.5045505"
       x="209.83704"
       y="46.371758"
       id="rect5876"
       style="fill:#b44800;fill-opacity:1;fill-rule:nonzero;stroke:#a04000;stroke-width:6.64213;stroke-miterlimit:4;stroke-dasharray:none;stroke-opacity:1"
       sodipodi:type="rect"
       d="m 210.88359,-53.194528 c 7.70987,-3.449228 15.42187,-6.829894 23.11459,-10.114229 3.50219,-1.495229 6.25989,0.224181 6.19126,3.802344 -0.15033,7.837894 -0.28385,15.65776 -0.40466,23.33146 -0.0552,3.503422 -2.91262,7.527462 -6.41224,9.063551 -7.68635,3.373771 -15.39237,6.8284 -23.09234,10.336806 -3.50541,1.597197 -6.2908,0.05975 -6.23938,-3.485747 0.1126,-7.762402 0.23859,-15.654511 0.38242,-23.555969 0.0657,-3.607299 2.94995,-7.807738 6.46035,-9.378216 z" /><path
       width="86.594139"
       height="86.594139"
       rx="15.320505"
       ry="15.320505"
       x="3.1442907"
       y="94.806808"
       id="rect5878"
       style="fill:#b44800;fill-opacity:1;fill-rule:nonzero;stroke:#a04000;stroke-width:6.64213;stroke-miterlimit:4;stroke-dasharray:none;stroke-opacity:1"
       sodipodi:type="rect"
       d="m 17.841681,87.662352 c 18.528183,-9.021348 35.52236,-17.344826 54.162193,-26.490756 8.243151,-4.044631 14.844347,-0.542998 14.805198,7.8184 -0.0063,1.335946 -0.214296,53.703994 -0.220551,55.039944 -0.02832,8.33477 -6.662265,18.40146 -14.86561,22.54353 -17.626614,8.90011 -36.416871,18.40822 -53.929712,27.33854 -8.1526468,4.15728 -14.6836077,0.67344 -14.6708576,-7.82053 0.029208,-19.45807 0.024165,-36.52191 -0.011931,-55.94719 -0.015783,-8.4938 6.5370491,-18.492182 14.7312704,-22.481938 z" /><path
       width="52.31562"
       height="52.31562"
       rx="9.2558413"
       ry="9.2558413"
       x="226.93687"
       y="208.16927"
       id="rect5880"
       style="fill:#b44800;fill-opacity:1;fill-rule:nonzero;stroke:#a04000;stroke-width:6.64213;stroke-miterlimit:4;stroke-dasharray:none;stroke-opacity:1"
       sodipodi:type="rect"
       d="m 228.31551,93.507262 c 10.84236,-5.460544 21.78827,-10.947377 32.59243,-16.315912 4.93674,-2.453044 8.86556,-0.576875 8.8269,4.174489 -0.0848,10.423915 -0.145,21.076321 -0.15588,31.706401 -0.005,4.84652 -3.94573,10.90943 -8.85311,13.52447 -10.85546,5.78466 -21.53986,11.46167 -32.44576,17.22921 -4.93155,2.60804 -8.93667,0.67161 -8.95585,-4.32529 -0.0419,-10.91852 -0.0311,-21.87579 0.009,-32.62763 0.0184,-4.92265 4.02875,-10.871103 8.98205,-13.365738 z" /></g><path
     d="m 99.63568,42.502851 c -8.34,3.77 -16.5,8.11 -16.5,8.11 0.21,0.09 0.73,0.74 0.73,0.74 -0.03,1.16 -0.05,2.31 -0.08,3.47 -0.14,5.95 -0.22,11.91 -0.42,17.86 0.67,-0.4 1.48,0.48 2.09,0 0.94,-0.74 2.94,-4 3.24,-4.1 0.4,-0.13 0.83,-0.03 1.24,-0.05 1.8,-0.1 5.83,-3.77 6.69,-3.94 0.83,-0.16 3.57,0.37 3.57,0.37 0,0 -0.21,-18.15 -0.26,-21.2 -0.02,-0.87 -0.3,-1.26 -0.3,-1.26 z"
     fill="#bf9f85"
     id="path43" /></svg>
