<?xml version="1.0" encoding="UTF-8" standalone="no"?>
<!-- Uploaded to: SVG Repo, www.svgrepo.com, Generator: SVG Repo Mixer Tools -->

<svg
   width="800px"
   height="800px"
   viewBox="0 0 128 128"
   aria-hidden="true"
   role="img"
   class="iconify iconify--noto"
   preserveAspectRatio="xMidYMid meet"
   version="1.1"
   id="svg113"
   sodipodi:docname="package-r.svg"
   inkscape:version="1.4.2 (ebf0e940d0, 2025-05-08)"
   xml:space="preserve"
   xmlns:inkscape="http://www.inkscape.org/namespaces/inkscape"
   xmlns:sodipodi="http://sodipodi.sourceforge.net/DTD/sodipodi-0.dtd"
   xmlns:xlink="http://www.w3.org/1999/xlink"
   xmlns="http://www.w3.org/2000/svg"
   xmlns:svg="http://www.w3.org/2000/svg"><defs
     id="defs113"><linearGradient
       id="linearGradient123"
       x1="0.74144253"
       x2="590.86259"
       y1="3.6658269"
       y2="593.78698"
       gradientUnits="userSpaceOnUse"
       spreadMethod="pad"
       gradientTransform="scale(1.2219423,0.81836924)"><stop
         offset="0"
         stop-color="#cbced0"
         stop-opacity="1"
         id="stop122"
         style="stop-color:#e7e9ec;stop-opacity:1;" /><stop
         offset="1"
         stop-color="#84838b"
         stop-opacity="1"
         id="stop123"
         style="stop-color:#6f6f75;stop-opacity:0.53718585;" /></linearGradient><inkscape:path-effect
       effect="envelope"
       id="path-effect121"
       is_visible="true"
       lpeversion="1"
       yy="true"
       xx="true"
       bendpath1="M 0.906,3 725.69029,335.12625"
       bendpath2="m 699.85825,338.81655 3.69029,563.44258"
       bendpath3="M 0.906,559.062 696.16795,920.71059"
       bendpath4="M 0.906,3 V 559.062"
       bendpath1-nodetypes="cc"
       bendpath3-nodetypes="cc"
       bendpath2-nodetypes="cc" /><linearGradient
       id="linearGradient119"
       x1="0.74144253"
       x2="590.86259"
       y1="3.6658269"
       y2="593.78698"
       gradientUnits="userSpaceOnUse"
       spreadMethod="pad"
       gradientTransform="scale(1.2219423,0.81836924)"><stop
         offset="0"
         stop-color="#cbced0"
         stop-opacity="1"
         id="stop118" /><stop
         offset="1"
         stop-color="#84838b"
         stop-opacity="1"
         id="stop119"
         style="stop-color:#84838b;stop-opacity:0.72245622;" /></linearGradient><inkscape:path-effect
       effect="envelope"
       id="path-effect117"
       is_visible="true"
       lpeversion="1"
       yy="true"
       xx="true"
       bendpath1="M 6.9887288,305.4816 722,3"
       bendpath2="M 722,3 V 559.062"
       bendpath3="M 12.390186,915.55817 722,559.062"
       bendpath4="m 28.594557,310.88305 3.600971,592.07172"
       bendpath3-nodetypes="cc"
       bendpath1-nodetypes="cc"
       bendpath4-nodetypes="cc" /><inkscape:path-effect
       effect="envelope"
       id="path-effect116"
       is_visible="true"
       lpeversion="1"
       yy="true"
       xx="true"
       bendpath1="M 298.00005,152.938 H 696.00001"
       bendpath2="M 696.00001,152.938 V 559.062"
       bendpath3="M 298.00005,559.062 H 696.00001"
       bendpath4="M 298.00005,152.938 V 559.062" /><inkscape:path-effect
       effect="perspective-envelope"
       up_left_point="298.00005,152.938"
       up_right_point="696.00001,152.938"
       down_left_point="298.00005,559.062"
       down_right_point="696.00001,559.062"
       id="path-effect115"
       is_visible="true"
       lpeversion="1"
       deform_type="perspective"
       horizontal_mirror="false"
       vertical_mirror="false"
       overflow_perspective="false" /><inkscape:path-effect
       effect="perspective-envelope"
       up_left_point="2.11,3"
       up_right_point="722,3"
       down_left_point="0.906,559.062"
       down_right_point="722,559.062"
       id="path-effect114"
       is_visible="true"
       lpeversion="1"
       deform_type="perspective"
       horizontal_mirror="false"
       vertical_mirror="false"
       overflow_perspective="false" /><linearGradient
       id="g"
       x1="0.74144253"
       x2="590.86259"
       y1="3.6658269"
       y2="593.78698"
       gradientUnits="userSpaceOnUse"
       spreadMethod="pad"
       gradientTransform="scale(1.2219423,0.81836924)"><stop
         offset="0"
         stop-color="#cbced0"
         stop-opacity="1"
         id="stop1" /><stop
         offset="1"
         stop-color="#84838b"
         stop-opacity="1"
         id="stop2" /></linearGradient><linearGradient
       id="b"
       x1="0"
       x2="1"
       y1="0"
       y2="1"
       gradientUnits="objectBoundingBox"
       spreadMethod="pad"><stop
         offset="0"
         stop-color="#276dc3"
         stop-opacity="1"
         id="stop3" /><stop
         offset="1"
         stop-color="#165caa"
         stop-opacity="1"
         id="stop4" /></linearGradient><inkscape:path-effect
       effect="perspective-envelope"
       up_left_point="2.11,3"
       up_right_point="722,3"
       down_left_point="0.906,559.062"
       down_right_point="722,559.062"
       id="path-effect114-9"
       is_visible="true"
       lpeversion="1"
       deform_type="perspective"
       horizontal_mirror="false"
       vertical_mirror="false"
       overflow_perspective="false" /><inkscape:path-effect
       effect="envelope"
       id="path-effect117-3"
       is_visible="true"
       lpeversion="1"
       yy="true"
       xx="true"
       bendpath1="M 6.9887288,305.4816 722,3"
       bendpath2="M 722,3 V 559.062"
       bendpath3="M 12.390186,915.55817 722,559.062"
       bendpath4="m 28.594557,310.88305 3.600971,592.07172"
       bendpath3-nodetypes="cc"
       bendpath1-nodetypes="cc"
       bendpath4-nodetypes="cc" /><linearGradient
       inkscape:collect="always"
       xlink:href="#linearGradient119"
       id="linearGradient117"
       gradientUnits="userSpaceOnUse"
       gradientTransform="matrix(1.2219423,0,0,0.81836924,-1241.4477,479.0939)"
       x1="0.74144253"
       y1="3.6658269"
       x2="590.86259"
       y2="593.78698"
       spreadMethod="pad" /><inkscape:path-effect
       effect="perspective-envelope"
       up_left_point="2.11,3"
       up_right_point="722,3"
       down_left_point="0.906,559.062"
       down_right_point="722,559.062"
       id="path-effect114-96"
       is_visible="true"
       lpeversion="1"
       deform_type="perspective"
       horizontal_mirror="false"
       vertical_mirror="false"
       overflow_perspective="false" /><inkscape:path-effect
       effect="envelope"
       id="path-effect117-38"
       is_visible="true"
       lpeversion="1"
       yy="true"
       xx="true"
       bendpath1="M 6.9887288,305.4816 722,3"
       bendpath2="M 722,3 V 559.062"
       bendpath3="M 12.390186,915.55817 722,559.062"
       bendpath4="m 28.594557,310.88305 3.600971,592.07172"
       bendpath3-nodetypes="cc"
       bendpath1-nodetypes="cc"
       bendpath4-nodetypes="cc" /><inkscape:path-effect
       effect="perspective-envelope"
       up_left_point="2.11,3"
       up_right_point="722,3"
       down_left_point="0.906,559.062"
       down_right_point="722,559.062"
       id="path-effect114-9-4"
       is_visible="true"
       lpeversion="1"
       deform_type="perspective"
       horizontal_mirror="false"
       vertical_mirror="false"
       overflow_perspective="false" /><inkscape:path-effect
       effect="envelope"
       id="path-effect117-3-8"
       is_visible="true"
       lpeversion="1"
       yy="true"
       xx="true"
       bendpath1="M 6.9887288,305.4816 722,3"
       bendpath2="M 722,3 V 559.062"
       bendpath3="M 12.390186,915.55817 722,559.062"
       bendpath4="m 28.594557,310.88305 3.600971,592.07172"
       bendpath3-nodetypes="cc"
       bendpath1-nodetypes="cc"
       bendpath4-nodetypes="cc" /><inkscape:path-effect
       effect="envelope"
       id="path-effect121-3"
       is_visible="true"
       lpeversion="1"
       yy="true"
       xx="true"
       bendpath1="M 0.906,3 725.69029,335.12625"
       bendpath2="m 699.85825,338.81655 3.69029,563.44258"
       bendpath3="M 0.906,559.062 696.16795,920.71059"
       bendpath4="M 0.906,3 V 559.062"
       bendpath1-nodetypes="cc"
       bendpath3-nodetypes="cc"
       bendpath2-nodetypes="cc" /></defs><sodipodi:namedview
     id="namedview113"
     pagecolor="#505050"
     bordercolor="#eeeeee"
     borderopacity="1"
     inkscape:showpageshadow="0"
     inkscape:pageopacity="0"
     inkscape:pagecheckerboard="0"
     inkscape:deskcolor="#505050"
     inkscape:zoom="0.14921875"
     inkscape:cx="-1591.623"
     inkscape:cy="2110.9948"
     inkscape:window-width="2027"
     inkscape:window-height="1412"
     inkscape:window-x="0"
     inkscape:window-y="0"
     inkscape:window-maximized="0"
     inkscape:current-layer="svg113" /><linearGradient
     id="IconifyId17ecdb2904d178eab14737"
     gradientUnits="userSpaceOnUse"
     x1="28.2"
     y1="-108.368"
     x2="14.107"
     y2="-79.066"
     gradientTransform="matrix(-1 0 0 1 124.88 0)"><stop
       offset=".31"
       stop-color="#fce8b2"
       id="stop103" /><stop
       offset=".399"
       stop-color="#ffcc80"
       id="stop104" /></linearGradient><g
     id="g43"
     transform="translate(-161.27432,0.0028514)"
     inkscape:label="box"><path
       d="m 223.81,4.84 -51.83,26.68 c -2.52,1.48 -1.8,5.09 -1.8,5.09 l 55.17,28.3 55.07,-27.86 c 0.05,-0.17 0.11,-1.21 -0.15,-3.19 -0.14,-1.04 -3.25,-2.94 -6.03,-4.51 C 245.71,13.23 226.95,4.93 226.95,4.93 225.75,4.46 224.75,4.3 223.81,4.84 Z"
       fill="#dea66c"
       id="path30" /><path
       d="m 171.01,96.16 c 3.04,2.01 8.59,4.65 14.2,7.69 13.04,7.06 29.52,15.64 37.72,19.01 2.45,1.01 3.75,0.51 3.75,0.51 0,0 -1.15,-56.3 -1.11,-59.45 0.02,-1.32 -1.59,-3.12 -2.74,-3.86 -1.78,-1.14 -5.64,-2.92 -5.64,-2.92 0,0 -13.52,-6.72 -27.02,-13.8 -6.42,-3.37 -11.84,-6.82 -17.67,-9.66 -1.06,-0.52 -2.33,0.12 -2.32,1.31 v 59.8 c 0,0.58 0.35,1.06 0.83,1.37 z"
       fill="#bf8049"
       id="path31" /><path
       d="m 278.85,96.51 -51.76,26.69 c -0.83,0.43 -1.82,-0.17 -1.82,-1.11 l 0.09,-57.18 c 0,-0.55 -0.41,-1.98 -0.56,-2.48 -0.14,-0.5 0.35,-1.51 0.81,-1.74 l 51.76,-26.66 c 1.36,-0.7 2.99,0.29 2.99,1.82 v 58.19 c 0,1.04 -0.59,1.99 -1.51,2.47 z"
       fill="#9e673c"
       id="path32" /><path
       d="m 251.82,52.26 c 3.01,-1.55 26.65,-14.19 26.65,-15.58 0,-1.14 -22.75,10.91 -22.75,10.91 0,0 -28.36,14.51 -28.82,15.74 -0.46,1.22 22.26,-9.7 24.92,-11.07 z"
       fill="#784d30"
       id="path33" /><g
       opacity="0.85"
       id="g38"><path
         d="m 173.36,93.22 c 3.69,1.86 7.35,3.78 11.91,6.11 v -1.78 c -4.54,-2.32 -8.21,-4.23 -11.91,-6.11 z"
         fill="#784d30"
         id="path34" /><path
         d="m 181.13,94.02 c 1.04,0.53 1.56,0.8 2.54,1.3 0.01,-3.1 0.01,-4.65 0.02,-7.75 -0.98,-0.5 -1.49,-0.76 -2.52,-1.29 -0.02,3.1 -0.03,4.65 -0.04,7.74 z"
         fill="#784d30"
         id="path35" /><path
         d="m 174.67,90.71 c 0.86,0.44 1.34,0.69 2.32,1.19 l 0.05,-7.72 c -0.99,-0.51 -1.47,-0.75 -2.34,-1.21 -0.01,3.09 -0.02,4.64 -0.03,7.74 z"
         fill="#784d30"
         id="path36" /><path
         d="m 179.5,86.36 c 2.37,1.21 3.63,1.86 5.72,2.92 -1.04,-1.89 -1.61,-2.85 -2.75,-4.79 -1.17,0.76 -1.78,1.13 -2.97,1.87 z"
         fill="#784d30"
         id="path37" /><path
         d="m 173.36,83.2 c 1.77,0.92 2.96,1.53 5.3,2.73 -1.16,-1.95 -1.74,-2.92 -2.81,-4.83 -1.09,0.79 -1.6,1.2 -2.49,2.1 z"
         fill="#784d30"
         id="path38" /></g><g
       opacity="0.85"
       id="g41"><path
         d="m 192.35,101.77 c 0.83,0.43 1.26,0.66 2.09,1.09 -0.06,-3.68 -0.09,-5.52 -0.16,-9.2 -0.8,-0.42 -1.2,-0.63 -2,-1.04 0.04,3.66 0.05,5.49 0.07,9.15 z"
         fill="#784d30"
         id="path39" /><path
         d="m 189.31,101.12 c 3.04,1.6 5.4,2.8 8.32,4.36 -0.02,-1.05 -0.83,-2.32 -1.93,-2.91 -1.72,-0.91 -2.7,-1.41 -4.44,-2.32 -1.12,-0.57 -1.95,-0.16 -1.95,0.87 z"
         fill="#784d30"
         id="path40" /><path
         d="m 195.1,90.73 1.28,2.71 c -0.4,0.85 -0.61,1.28 -1.03,2.12 0.36,-0.03 0.54,-0.04 0.9,-0.07 0.48,-0.64 0.72,-0.96 1.18,-1.6 -0.42,-0.99 -0.64,-1.49 -1.08,-2.48 1.22,0.67 1.82,1.01 2.93,1.66 0,3.58 -2.34,5.16 -5.86,3.32 -3.52,-1.83 -5.85,-5.92 -5.85,-9.51 2.62,1.31 4.38,2.17 7.53,3.85 z"
         fill="#784d30"
         id="path41" /></g><path
       d="m 260.68,42.33 c -0.5,-0.37 -54.32,-28.49 -54.32,-28.49 l -16.68,8.6 55.11,28.37 c 4.76,-2.45 12.32,-6.35 16.12,-8.3 -0.07,-0.06 -0.14,-0.12 -0.23,-0.18 z"
       fill="#ffe0b2"
       id="path42" /><g
       id="g114-5-8"
       transform="matrix(0.0686901,0,0,0.0686901,227.69125,52.741379)"
       inkscape:label="R"
       inkscape:path-effect="#path-effect114-9;#path-effect117-3"
       style="stroke-width:2.3293"><path
         d="m 365.96456,660.56908 c -98.25808,48.3177 -183.15902,61.24293 -242.47136,43.39129 -58.82926,-17.70624 -92.376713,-65.62358 -93.59075,-136.163 -1.219263,-70.84307 30.211894,-152.80708 89.33189,-228.3564 59.80459,-76.42416 145.6325,-143.05782 245.5179,-185.31249 98.31839,-41.59177 188.56333,-50.43795 252.25633,-34.37092 64.23366,16.20342 104.66712,58.12312 104.91895,124.51367 0.25236,66.53151 -39.93357,145.60282 -104.56607,220.96294 -64.26925,74.9366 -154.02332,147.45216 -251.39689,195.33491 z m 53.13548,-429.89207 c -75.18206,33.02896 -140.87344,81.62077 -187.70559,135.21879 -46.50857,53.2277 -73.57023,110.51151 -73.152,158.7444 0.41852,48.26578 28.23357,78.7857 74.87088,87.87347 46.84697,9.12863 112.51453,-3.36182 187.14303,-39.48487 74.31862,-35.97306 139.51608,-80.56272 185.93038,-130.04982 46.37141,-49.44135 74.2773,-104.0592 74.15638,-161.44344 -0.12078,-57.31559 -28.13278,-86.04288 -74.58959,-92.61325 -46.34759,-6.55493 -112.01936,8.96647 -186.65349,41.75472 z"
         fill="url(#g)"
         fill-rule="evenodd"
         id="path4-3-6-5"
         style="fill:url(#linearGradient117);stroke-width:2.3293"
         inkscape:original-d="m -879.99469,965.0309 c -199.12401,0 -360.54701,-108.109 -360.54701,-241.468 0,-133.36 161.423,-241.469 360.54701,-241.469 199.125,0 360.547,108.109 360.547,241.469 0,133.359 -161.422,241.468 -360.547,241.468 z m 55.188,-388.531 c -151.352,0 -274.04701,73.908 -274.04701,165.078 0,91.17 122.69501,165.078 274.04701,165.078 151.351,0 263.046,-50.529 263.046,-165.078 0,-114.513 -111.695,-165.078 -263.046,-165.078 z" /><path
         d="m 551.98508,457.67223 c 0,0 21.53313,-3.55492 34.02593,-3.00837 4.33352,0.18972 11.8321,1.11653 17.22163,4.44675 5.28103,3.26211 7.84128,7.8978 7.84128,7.8978 27.40975,34.67503 56.87067,71.45891 85.61983,104.59464 -44.73075,22.33713 -91.23324,45.73088 -136.55542,68.56945 -22.55903,-30.02834 -44.69644,-62.11371 -65.70042,-93.31907 0,0 -13.05463,-17.25785 -21.08498,-20.22765 -6.70671,-2.47977 -9.5595,-3.14478 -16.21255,0.0507 0.27663,-0.13287 -32.74527,15.73042 -32.46864,15.59755 -0.30641,53.11605 -0.68705,112.57425 0.94915,165.55855 6.63603,-3.34297 -127.71846,64.2151 -121.08243,60.87213 -2.72431,-138.43809 1.97338,-289.68318 -0.75093,-428.12128 75.78528,-34.32393 165.10094,-74.1991 242.72591,-108.95809 0,0 27.8645,-11.90522 55.80996,-10.40757 27.88387,1.49435 56.01335,16.28701 56.13419,69.96135 0.12095,53.71127 -26.69337,95.40112 -53.26971,123.54553 -26.64334,28.21537 -53.2028,42.94757 -53.2028,42.94757 0,0 0,-10e-6 0,-10e-6 z M 499.21655,343.32145 c 12.57003,-5.77217 -85.89961,39.46359 -73.32958,33.69142 0.14964,24.13305 0.20829,47.21763 0.17875,71.39991 4.14356,-1.94591 69.16922,-32.45799 73.31278,-34.4039 0,0 34.12387,-16.0981 34.05083,-51.83483 -0.0744,-36.41098 -34.21281,-18.85259 -34.21281,-18.85259 0,0 3e-5,-10e-6 3e-5,-10e-6 z"
         fill="url(#b"
         fill-rule="evenodd"
         id="path5-6-2-0"
         style="fill:#525e77;fill-opacity:1;stroke-width:2.3293"
         inkscape:original-d="m -691.44769,856.0939 c 0,0 21.822,6.585 34.5,13 4.399,2.226 12.01,6.668 17.5,12.5 5.378,5.712 8,11.5 8,11.5 l 86,145 -139,0.062 -65,-122.062 c 0,0 -13.31,-22.869 -21.5,-29.5 -6.832,-5.531 -9.745,-7.5 -16.5,-7.5 -4.702,0 -33.026,0 -33.026,0 l 0.026,158.974 -123,0.052 v -406.088 h 247 c 0,0 112.5,2.029 112.5,109.062 0,107.033 -107.5,115 -107.5,115 z m -53.5,-135.976 -74.463,-0.048 -0.037,69.05 74.5,-0.024 c 0,0 34.5,-0.107 34.5,-35.125 0,-35.722 -34.5,-33.853 -34.5,-33.853 z" /></g><path
       d="m 260.91,42.5 c -8.34,3.77 -16.5,8.11 -16.5,8.11 0.21,0.09 0.73,0.74 0.73,0.74 -0.03,1.16 -0.05,2.31 -0.08,3.47 -0.14,5.95 -0.22,11.91 -0.42,17.86 0.67,-0.4 1.48,0.48 2.09,0 0.94,-0.74 2.94,-4 3.24,-4.1 0.4,-0.13 0.83,-0.03 1.24,-0.05 1.8,-0.1 5.83,-3.77 6.69,-3.94 0.83,-0.16 3.57,0.37 3.57,0.37 0,0 -0.21,-18.15 -0.26,-21.2 -0.02,-0.87 -0.3,-1.26 -0.3,-1.26 z"
       fill="#bf9f85"
       id="path43" /></g></svg>
